<svg width="300" height="400" viewBox="0 0 300 400" xmlns="http://www.w3.org/2000/svg">
  <!-- Page background -->
  <rect width="300" height="400" fill="#fefefe" stroke="#e5e7eb" stroke-width="1"/>
  
  <!-- Background gradient overlay - limited to header area -->
  <rect x="25" y="30" width="250" height="120" fill="#f3e8ff"/>
  
  <!-- Left accent bar - limited height -->
  <rect x="0" y="30" width="6" height="120" fill="#9333ea"/>
  
  <!-- Header section -->
  <!-- Profile photo with decorative pink border -->
  <circle cx="230" cy="85" r="22" fill="#ec4899"/>
  <circle cx="230" cy="85" r="19" fill="#ffffff" stroke="#ffffff" stroke-width="2"/>
  <circle cx="230" cy="85" r="17" fill="#f3f4f6"/>
  
  <!-- Name - uppercase style -->
  <rect x="35" y="55" width="90" height="7" fill="#9333ea"/>
  <rect x="35" y="65" width="75" height="7" fill="#9333ea"/>
  
  <!-- Title with proper spacing -->
  <rect x="35" y="85" width="52" height="4" fill="#ec4899"/>
  
  <!-- Contact grid with amber icons -->
  <circle cx="37" cy="105" r="2" fill="#f59e0b"/>
  <rect x="42" y="103" width="34" height="2" fill="#1f2937"/>
  <circle cx="82" cy="105" r="2" fill="#f59e0b"/>
  <rect x="87" y="103" width="30" height="2" fill="#1f2937"/>
  
  <circle cx="37" cy="115" r="2" fill="#f59e0b"/>
  <rect x="42" y="113" width="26" height="2" fill="#1f2937"/>
  <circle cx="82" cy="115" r="2" fill="#f59e0b"/>
  <rect x="87" y="113" width="38" height="2" fill="#1f2937"/>
  
  <!-- Content sections below header -->
  <!-- Summary section with icon and divider -->
  <circle cx="35" cy="170" r="3" fill="#9333ea"/>
  <rect x="45" y="168" width="75" height="3" fill="#9333ea"/>
  <rect x="30" y="178" width="225" height="1" fill="#f3e8ff"/>
  
  <!-- Summary card with pink left border -->
  <rect x="30" y="188" width="225" height="15" fill="#ffffff" rx="2"/>
  <rect x="30" y="188" width="2" height="15" fill="#ec4899"/>
  <rect x="36" y="192" width="187" height="2" fill="#1f2937"/>
  <rect x="36" y="196" width="165" height="2" fill="#1f2937"/>
  
  <!-- Experience section -->
  <circle cx="35" cy="225" r="3" fill="#9333ea"/>
  <rect x="45" y="223" width="90" height="3" fill="#9333ea"/>
  <rect x="30" y="233" width="225" height="1" fill="#f3e8ff"/>
  
  <!-- Experience card with amber left border -->
  <rect x="30" y="243" width="225" height="18" fill="#ffffff" rx="2"/>
  <rect x="30" y="243" width="2" height="18" fill="#f59e0b"/>
  <rect x="36" y="247" width="60" height="3" fill="#9333ea"/>
  <rect x="36" y="252" width="45" height="2" fill="#ec4899"/>
  <!-- Date badge -->
  <rect x="195" y="247" width="26" height="5" fill="#f3e8ff" rx="2"/>
  <rect x="197" y="248" width="22" height="1.5" fill="#6b7280"/>
  <rect x="36" y="256" width="135" height="2" fill="#1f2937"/>
  
  <!-- Skills section with rounded chips -->
  <circle cx="35" cy="285" r="3" fill="#9333ea"/>
  <rect x="45" y="283" width="60" height="3" fill="#9333ea"/>
  <rect x="30" y="293" width="225" height="1" fill="#f3e8ff"/>
  
  <!-- Skill chips -->
  <rect x="30" y="303" width="17" height="6" fill="#f3e8ff" stroke="#9333ea" stroke-width="0.5" rx="3"/>
  <rect x="50" y="303" width="21" height="6" fill="#f3e8ff" stroke="#9333ea" stroke-width="0.5" rx="3"/>
  <rect x="75" y="303" width="19" height="6" fill="#f3e8ff" stroke="#9333ea" stroke-width="0.5" rx="3"/>
  <rect x="98" y="303" width="23" height="6" fill="#f3e8ff" stroke="#9333ea" stroke-width="0.5" rx="3"/>
  <rect x="125" y="303" width="20" height="6" fill="#f3e8ff" stroke="#9333ea" stroke-width="0.5" rx="3"/>
  
  <!-- Languages section indicator -->
  <circle cx="35" cy="330" r="3" fill="#9333ea"/>
  <rect x="45" y="328" width="60" height="3" fill="#9333ea"/>
  <rect x="30" y="338" width="225" height="1" fill="#f3e8ff"/>
  
  <rect x="30" y="348" width="225" height="10" fill="#ffffff" rx="2"/>
  <rect x="30" y="348" width="2" height="10" fill="#ec4899"/>
  <!-- Language items with dots -->
  <circle cx="36" cy="353" r="1" fill="#ec4899"/>
  <rect x="40" y="352" width="19" height="1.5" fill="#1f2937"/>
  <circle cx="63" cy="353" r="1" fill="#ec4899"/>
  <rect x="67" y="352" width="15" height="1.5" fill="#1f2937"/>
  <circle cx="86" cy="353" r="1" fill="#ec4899"/>
  <rect x="90" y="352" width="23" height="1.5" fill="#1f2937"/>
  
  <!-- Education section -->
  <circle cx="35" cy="380" r="3" fill="#9333ea"/>
  <rect x="45" y="378" width="60" height="3" fill="#9333ea"/>
  <rect x="30" y="388" width="225" height="1" fill="#f3e8ff"/>
</svg>