<svg width="300" height="400" viewBox="0 0 300 400" xmlns="http://www.w3.org/2000/svg">
  <!-- Page background -->
  <rect width="300" height="400" fill="#f9fafb" stroke="#e5e7eb" stroke-width="1"/>
  
  <!-- Background decorative circles -->
  <circle cx="250" cy="50" r="40" fill="#dbeafe" opacity="0.6"/>
  <circle cx="50" cy="350" r="50" fill="#f3e8ff" opacity="0.4"/>
  
  <!-- Blue accent line -->
  <rect x="0" y="0" width="2" height="400" fill="#3b82f6"/>
  
  <!-- Header section -->
  <circle cx="40" cy="40" r="15" fill="#3b82f6" stroke="white" stroke-width="2"/>
  
  <!-- Name and title -->
  <rect x="65" y="30" width="80" height="6" fill="#1f2937" rx="3"/>
  <rect x="65" y="42" width="60" height="3" fill="#3b82f6" rx="1.5"/>
  
  <!-- Contact chips -->
  <rect x="20" y="70" width="35" height="8" fill="white" stroke="#d1d5db" rx="4"/>
  <rect x="60" y="70" width="30" height="8" fill="white" stroke="#d1d5db" rx="4"/>
  <rect x="95" y="70" width="40" height="8" fill="white" stroke="#d1d5db" rx="4"/>
  
  <!-- Two column layout -->
  <!-- Left sidebar -->
  <!-- Skills section -->
  <rect x="20" y="100" width="40" height="3" fill="#374151" rx="1.5"/>
  <rect x="20" y="108" width="15" height="2" fill="#3b82f6" rx="1"/>
  
  <!-- Skill chips -->
  <rect x="20" y="118" width="20" height="6" fill="#3b82f6" rx="3"/>
  <rect x="45" y="118" width="25" height="6" fill="#3b82f6" rx="3"/>
  <rect x="20" y="128" width="30" height="6" fill="#3b82f6" rx="3"/>
  <rect x="55" y="128" width="18" height="6" fill="#3b82f6" rx="3"/>
  
  <!-- Education section -->
  <rect x="20" y="150" width="45" height="3" fill="#374151" rx="1.5"/>
  <rect x="20" y="158" width="15" height="2" fill="#3b82f6" rx="1"/>
  
  <rect x="20" y="168" width="60" height="3" fill="#6b7280" rx="1.5"/>
  <rect x="20" y="176" width="50" height="2" fill="#9ca3af" rx="1"/>
  <rect x="20" y="182" width="45" height="2" fill="#9ca3af" rx="1"/>
  
  <!-- Languages section -->
  <rect x="20" y="200" width="50" height="3" fill="#374151" rx="1.5"/>
  <rect x="20" y="208" width="15" height="2" fill="#3b82f6" rx="1"/>
  
  <rect x="20" y="218" width="35" height="2" fill="#6b7280" rx="1"/>
  <rect x="60" y="218" width="25" height="2" fill="#9ca3af" rx="1"/>
  <rect x="20" y="226" width="30" height="2" fill="#6b7280" rx="1"/>
  <rect x="55" y="226" width="30" height="2" fill="#9ca3af" rx="1"/>
  
  <!-- Right main content -->
  <!-- Summary section -->
  <rect x="120" y="100" width="50" height="4" fill="#374151" rx="2"/>
  <rect x="120" y="108" width="15" height="2" fill="#3b82f6" rx="1"/>
  
  <rect x="120" y="120" width="160" height="3" fill="#9ca3af" rx="1.5"/>
  <rect x="120" y="128" width="150" height="3" fill="#9ca3af" rx="1.5"/>
  <rect x="120" y="136" width="140" height="3" fill="#9ca3af" rx="1.5"/>
  
  <!-- Experience section -->
  <rect x="120" y="160" width="55" height="4" fill="#374151" rx="2"/>
  <rect x="120" y="168" width="15" height="2" fill="#3b82f6" rx="1"/>
  
  <!-- Experience entry with creative styling -->
  <rect x="120" y="180" width="160" height="40" fill="#f8fafc" stroke="#e2e8f0" rx="4"/>
  <rect x="125" y="185" width="90" height="4" fill="#6b7280" rx="2"/>
  <rect x="125" y="194" width="70" height="3" fill="#9ca3af" rx="1.5"/>
  <rect x="125" y="202" width="140" height="2" fill="#d1d5db" rx="1"/>
  <rect x="125" y="208" width="130" height="2" fill="#d1d5db" rx="1"/>
  <rect x="125" y="214" width="120" height="2" fill="#d1d5db" rx="1"/>
  
  <!-- Projects section -->
  <rect x="120" y="240" width="45" height="4" fill="#374151" rx="2"/>
  <rect x="120" y="248" width="15" height="2" fill="#3b82f6" rx="1"/>
  
  <rect x="120" y="260" width="80" height="3" fill="#6b7280" rx="1.5"/>
  <rect x="120" y="268" width="140" height="2" fill="#d1d5db" rx="1"/>
  <rect x="120" y="274" width="100" height="2" fill="#3b82f6" rx="1"/>
</svg>