<svg width="300" height="400" viewBox="0 0 300 400" xmlns="http://www.w3.org/2000/svg">
  <!-- Page background -->
  <rect width="300" height="400" fill="#fefefe" stroke="#e5e7eb" stroke-width="1"/>
  
  <!-- Background gradient overlay - limited to header area -->
  <rect x="25" y="30" width="250" height="120" fill="#f3e8ff"/>
  
  <!-- Left accent bar - limited height -->
  <rect x="0" y="30" width="6" height="120" fill="#9333ea"/>
  
  <!-- Header section -->
  <!-- Profile photo with decorative pink border -->
  <circle cx="230" cy="85" r="22" fill="#ec4899"/>
  <circle cx="230" cy="85" r="19" fill="#ffffff" stroke="#ffffff" stroke-width="2"/>
  <circle cx="230" cy="85" r="17" fill="#f3f4f6"/>
  
  <!-- Name - uppercase style -->
  <text x="35" y="62" fill="#9333ea" font-family="sans-serif" font-size="12" font-weight="bold">LUNA</text>
  <text x="35" y="74" fill="#9333ea" font-family="sans-serif" font-size="12" font-weight="bold">GARCIA</text>
  
  <!-- Title with proper spacing -->
  <text x="35" y="90" fill="#ec4899" font-family="sans-serif" font-size="7">Illustrator &amp; Artist</text>
  
  <!-- Contact grid with amber icons -->
  <circle cx="37" cy="105" r="2" fill="#f59e0b"/>
  <text x="42" y="107" fill="#1f2937" font-family="sans-serif" font-size="4">luna@example.com</text>
  <circle cx="82" cy="105" r="2" fill="#f59e0b"/>
  <text x="87" y="107" fill="#1f2937" font-family="sans-serif" font-size="4">(555) 654-3210</text>
  
  <circle cx="37" cy="115" r="2" fill="#f59e0b"/>
  <text x="42" y="117" fill="#1f2937" font-family="sans-serif" font-size="4">Portland, OR</text>
  <circle cx="82" cy="115" r="2" fill="#f59e0b"/>
  <text x="87" y="117" fill="#1f2937" font-family="sans-serif" font-size="4">behance.com/lunagarcia</text>
  
  <!-- Content sections below header -->
  <!-- Summary section with icon and divider -->
  <circle cx="35" cy="170" r="3" fill="#9333ea"/>
  <text x="45" y="173" fill="#9333ea" font-family="sans-serif" font-size="7" font-weight="bold">ABOUT ME</text>
  <rect x="30" y="178" width="225" height="1" fill="#f3e8ff"/>
  
  <!-- Summary card with pink left border -->
  <rect x="30" y="188" width="225" height="15" fill="#ffffff" rx="2"/>
  <rect x="30" y="188" width="2" height="15" fill="#ec4899"/>
  <text x="36" y="195" fill="#1f2937" font-family="sans-serif" font-size="5">Creative illustrator and digital artist with 5+ years of experience in concept art,</text>
  <text x="36" y="200" fill="#1f2937" font-family="sans-serif" font-size="5">character design, and visual storytelling for games and media.</text>
  
  <!-- Experience section -->
  <circle cx="35" cy="225" r="3" fill="#9333ea"/>
  <text x="45" y="228" fill="#9333ea" font-family="sans-serif" font-size="7" font-weight="bold">EXPERIENCE</text>
  <rect x="30" y="233" width="225" height="1" fill="#f3e8ff"/>
  
  <!-- Experience card with amber left border -->
  <rect x="30" y="243" width="225" height="18" fill="#ffffff" rx="2"/>
  <rect x="30" y="243" width="2" height="18" fill="#f59e0b"/>
  <text x="36" y="250" fill="#9333ea" font-family="sans-serif" font-size="6" font-weight="bold">Freelance Illustrator</text>
  <text x="36" y="256" fill="#ec4899" font-family="sans-serif" font-size="5">Various Clients</text>
  <!-- Date badge -->
  <rect x="195" y="247" width="26" height="5" fill="#f3e8ff" rx="2"/>
  <text x="200" y="251" fill="#6b7280" font-family="sans-serif" font-size="4">2019-Now</text>
  <text x="36" y="261" fill="#1f2937" font-family="sans-serif" font-size="4">• Created artwork for indie games, book covers, and brand identity</text>
  
  <!-- Skills section with rounded chips -->
  <circle cx="35" cy="285" r="3" fill="#9333ea"/>
  <text x="45" y="288" fill="#9333ea" font-family="sans-serif" font-size="7" font-weight="bold">SKILLS</text>
  <rect x="30" y="293" width="225" height="1" fill="#f3e8ff"/>
  
  <!-- Skill chips -->
  <rect x="30" y="303" width="17" height="6" fill="#f3e8ff" stroke="#9333ea" stroke-width="0.5" rx="3"/>
  <text x="33" y="308" fill="#9333ea" font-family="sans-serif" font-size="4">Photoshop</text>
  <rect x="50" y="303" width="21" height="6" fill="#f3e8ff" stroke="#9333ea" stroke-width="0.5" rx="3"/>
  <text x="53" y="308" fill="#9333ea" font-family="sans-serif" font-size="4">Illustrator</text>
  <rect x="75" y="303" width="19" height="6" fill="#f3e8ff" stroke="#9333ea" stroke-width="0.5" rx="3"/>
  <text x="78" y="308" fill="#9333ea" font-family="sans-serif" font-size="4">Procreate</text>
  <rect x="98" y="303" width="23" height="6" fill="#f3e8ff" stroke="#9333ea" stroke-width="0.5" rx="3"/>
  <text x="101" y="308" fill="#9333ea" font-family="sans-serif" font-size="4">Character Design</text>
  <rect x="125" y="303" width="20" height="6" fill="#f3e8ff" stroke="#9333ea" stroke-width="0.5" rx="3"/>
  <text x="128" y="308" fill="#9333ea" font-family="sans-serif" font-size="4">Concept Art</text>
  
  <!-- Languages section indicator -->
  <circle cx="35" cy="330" r="3" fill="#9333ea"/>
  <text x="45" y="333" fill="#9333ea" font-family="sans-serif" font-size="7" font-weight="bold">LANGUAGES</text>
  <rect x="30" y="338" width="225" height="1" fill="#f3e8ff"/>
  
  <rect x="30" y="348" width="225" height="10" fill="#ffffff" rx="2"/>
  <rect x="30" y="348" width="2" height="10" fill="#ec4899"/>
  <!-- Language items with dots -->
  <circle cx="36" cy="353" r="1" fill="#ec4899"/>
  <text x="40" y="355" fill="#1f2937" font-family="sans-serif" font-size="4">English (Native)</text>
  <circle cx="63" cy="353" r="1" fill="#ec4899"/>
  <text x="67" y="355" fill="#1f2937" font-family="sans-serif" font-size="4">Spanish (Fluent)</text>
  <circle cx="86" cy="353" r="1" fill="#ec4899"/>
  <text x="90" y="355" fill="#1f2937" font-family="sans-serif" font-size="4">Japanese (Basic)</text>
  
  <!-- Education section -->
  <circle cx="35" cy="380" r="3" fill="#9333ea"/>
  <text x="45" y="383" fill="#9333ea" font-family="sans-serif" font-size="7" font-weight="bold">EDUCATION</text>
  <rect x="30" y="388" width="225" height="1" fill="#f3e8ff"/>
</svg>