<svg width="300" height="400" viewBox="0 0 300 400" fill="none" xmlns="http://www.w3.org/2000/svg">
  <!-- Background -->
  <rect width="300" height="400" fill="#ffffff"/>
  
  <!-- Header Section -->
  <rect x="0" y="0" width="300" height="90" fill="#f8fafc"/>
  
  <!-- Name -->
  <rect x="60" y="20" width="180" height="16" rx="2" fill="#1e3a8a"/>
  
  <!-- Title -->
  <rect x="90" y="42" width="120" height="10" rx="1" fill="#64748b"/>
  
  <!-- Contact Info -->
  <rect x="45" y="60" width="60" height="6" rx="1" fill="#0f172a"/>
  <circle cx="115" cy="63" r="1" fill="#64748b"/>
  <rect x="125" y="60" width="50" height="6" rx="1" fill="#0f172a"/>
  <circle cx="185" cy="63" r="1" fill="#64748b"/>
  <rect x="195" y="60" width="60" height="6" rx="1" fill="#0f172a"/>
  
  <!-- Header Border -->
  <line x1="20" y1="88" x2="280" y2="88" stroke="#e2e8f0" stroke-width="1"/>
  
  <!-- Summary Section -->
  <rect x="20" y="105" width="260" height="40" rx="4" fill="#f1f5f9" stroke="#e2e8f0" stroke-width="1"/>
  <rect x="30" y="115" width="240" height="4" rx="1" fill="#0f172a"/>
  <rect x="30" y="125" width="200" height="4" rx="1" fill="#0f172a"/>
  <rect x="30" y="135" width="220" height="4" rx="1" fill="#0f172a"/>
  
  <!-- Section Title -->
  <rect x="20" y="160" width="120" height="8" rx="1" fill="#1e3a8a"/>
  <line x1="20" y1="175" x2="140" y2="175" stroke="#1e3a8a" stroke-width="2"/>
  
  <!-- Experience Items -->
  <rect x="20" y="185" width="140" height="8" rx="1" fill="#0f172a"/>
  <rect x="200" y="185" width="80" height="6" rx="1" fill="#64748b"/>
  <rect x="20" y="200" width="100" height="6" rx="1" fill="#1e3a8a"/>
  <rect x="20" y="212" width="240" height="4" rx="1" fill="#0f172a"/>
  <rect x="20" y="220" width="200" height="4" rx="1" fill="#0f172a"/>
  
  <rect x="20" y="240" width="120" height="8" rx="1" fill="#0f172a"/>
  <rect x="200" y="240" width="80" height="6" rx="1" fill="#64748b"/>
  <rect x="20" y="255" width="90" height="6" rx="1" fill="#1e3a8a"/>
  <rect x="20" y="267" width="220" height="4" rx="1" fill="#0f172a"/>
  <rect x="20" y="275" width="180" height="4" rx="1" fill="#0f172a"/>
  
  <!-- Section Title -->
  <rect x="20" y="300" width="80" height="8" rx="1" fill="#1e3a8a"/>
  <line x1="20" y1="315" x2="100" y2="315" stroke="#1e3a8a" stroke-width="2"/>
  
  <!-- Education Item -->
  <rect x="20" y="325" width="120" height="8" rx="1" fill="#0f172a"/>
  <rect x="200" y="325" width="80" height="6" rx="1" fill="#64748b"/>
  <rect x="20" y="340" width="90" height="6" rx="1" fill="#1e3a8a"/>
  
  <!-- Skills Section -->
  <rect x="20" y="365" width="60" height="8" rx="1" fill="#1e3a8a"/>
  <line x1="20" y1="380" x2="80" y2="380" stroke="#1e3a8a" stroke-width="2"/>
  
  <!-- Skill Chips -->
  <rect x="20" y="390" width="40" height="6" rx="3" fill="#f1f5f9" stroke="#e2e8f0" stroke-width="1"/>
  <rect x="70" y="390" width="50" height="6" rx="3" fill="#f1f5f9" stroke="#e2e8f0" stroke-width="1"/>
  <rect x="130" y="390" width="45" height="6" rx="3" fill="#f1f5f9" stroke="#e2e8f0" stroke-width="1"/>
  <rect x="185" y="390" width="35" height="6" rx="3" fill="#f1f5f9" stroke="#e2e8f0" stroke-width="1"/>
</svg>