<svg width="300" height="400" viewBox="0 0 300 400" xmlns="http://www.w3.org/2000/svg">
  <!-- Page background -->
  <rect width="300" height="400" fill="white" stroke="#e5e7eb" stroke-width="1"/>
  
  <!-- Header area -->
  <rect x="20" y="20" width="260" height="45" fill="#f8fafc"/>
  
  <!-- Name -->
  <rect x="30" y="30" width="120" height="8" fill="#1e293b" rx="2"/>
  
  <!-- Contact info -->
  <rect x="30" y="45" width="80" height="5" fill="#6b7280" rx="1"/>
  <rect x="120" y="45" width="90" height="5" fill="#6b7280" rx="1"/>
  
  <!-- Blue accent line under header -->
  <rect x="20" y="75" width="260" height="2" fill="#2563eb"/>
  
  <!-- Professional Summary section -->
  <rect x="30" y="95" width="150" height="6" fill="#1e293b" rx="1"/>
  <rect x="30" y="110" width="240" height="4" fill="#374151" rx="1"/>
  <rect x="30" y="118" width="220" height="4" fill="#374151" rx="1"/>
  <rect x="30" y="126" width="200" height="4" fill="#374151" rx="1"/>
  
  <!-- Section divider -->
  <rect x="30" y="145" width="240" height="1" fill="#e5e7eb"/>
  
  <!-- Experience section title -->
  <rect x="30" y="160" width="180" height="6" fill="#1e293b" rx="1"/>
  
  <!-- Experience entries -->
  <!-- Entry 1 -->
  <rect x="30" y="180" width="140" height="5" fill="#1e293b" rx="1"/>
  <rect x="200" y="180" width="70" height="4" fill="#6b7280" rx="1"/>
  <rect x="30" y="190" width="100" height="4" fill="#2563eb" rx="1"/>
  <rect x="30" y="200" width="240" height="3" fill="#374151" rx="1"/>
  <rect x="30" y="207" width="220" height="3" fill="#374151" rx="1"/>
  
  <!-- Entry 2 -->
  <rect x="30" y="225" width="130" height="5" fill="#1e293b" rx="1"/>
  <rect x="200" y="225" width="70" height="4" fill="#6b7280" rx="1"/>
  <rect x="30" y="235" width="90" height="4" fill="#2563eb" rx="1"/>
  <rect x="30" y="245" width="240" height="3" fill="#374151" rx="1"/>
  <rect x="30" y="252" width="200" height="3" fill="#374151" rx="1"/>
  
  <!-- Section divider -->
  <rect x="30" y="270" width="240" height="1" fill="#e5e7eb"/>
  
  <!-- Education section -->
  <rect x="30" y="285" width="80" height="6" fill="#1e293b" rx="1"/>
  <rect x="30" y="305" width="120" height="5" fill="#1e293b" rx="1"/>
  <rect x="200" y="305" width="70" height="4" fill="#6b7280" rx="1"/>
  <rect x="30" y="315" width="110" height="4" fill="#2563eb" rx="1"/>
  <rect x="30" y="325" width="80" height="3" fill="#6b7280" rx="1"/>
  
  <!-- Section divider -->
  <rect x="30" y="345" width="240" height="1" fill="#e5e7eb"/>
  
  <!-- Skills section -->
  <rect x="30" y="360" width="120" height="6" fill="#1e293b" rx="1"/>
  
  <!-- Skills as bullet points -->
  <rect x="30" y="375" width="40" height="3" fill="#374151" rx="1"/>
  <rect x="75" y="375" width="45" height="3" fill="#374151" rx="1"/>
  <rect x="125" y="375" width="50" height="3" fill="#374151" rx="1"/>
  <rect x="180" y="375" width="35" height="3" fill="#374151" rx="1"/>
</svg>