<svg width="300" height="400" viewBox="0 0 300 400" xmlns="http://www.w3.org/2000/svg">
  <!-- Page background -->
  <rect width="300" height="400" fill="#ffffff" stroke="#e5e7eb" stroke-width="1"/>
  
  <!-- Profile photo placeholder -->
  <circle cx="150" cy="60" r="24" fill="#f3f4f6" stroke="#d1d5db" stroke-width="1"/>
  
  <!-- Name -->
  <rect x="90" y="100" width="120" height="10" fill="#0f172a"/>
  
  <!-- Title -->
  <rect x="113" y="120" width="75" height="6" fill="#64748b"/>
  
  <!-- Contact line -->
  <rect x="105" y="140" width="25" height="4" fill="#1f2937"/>
  <rect x="131" y="140" width="2" height="4" fill="#64748b"/>
  <rect x="136" y="140" width="28" height="4" fill="#1f2937"/>
  <rect x="167" y="140" width="2" height="4" fill="#64748b"/>
  <rect x="172" y="140" width="23" height="4" fill="#1f2937"/>
  
  <!-- Divider line -->
  <line x1="30" y1="165" x2="270" y2="165" stroke="#d1d5db" stroke-width="1"/>
  
  <!-- Summary Section -->
  <rect x="30" y="185" width="45" height="6" fill="#0f172a"/>
  <line x1="30" y1="198" x2="75" y2="198" stroke="#d1d5db" stroke-width="1"/>
  <rect x="30" y="210" width="225" height="4" fill="#1f2937"/>
  <rect x="30" y="218" width="210" height="4" fill="#1f2937"/>
  <rect x="30" y="226" width="188" height="4" fill="#1f2937"/>
  
  <!-- Experience Section -->
  <rect x="30" y="250" width="52" height="6" fill="#0f172a"/>
  <line x1="30" y1="263" x2="82" y2="263" stroke="#d1d5db" stroke-width="1"/>
  
  <!-- First Experience -->
  <rect x="30" y="280" width="75" height="5" fill="#0f172a"/>
  <rect x="210" y="280" width="45" height="4" fill="#64748b"/>
  <rect x="30" y="290" width="60" height="4" fill="#374151"/>
  <rect x="30" y="298" width="150" height="3" fill="#1f2937"/>
  <rect x="30" y="305" width="135" height="3" fill="#1f2937"/>
  
  <!-- Second Experience -->
  <rect x="30" y="325" width="68" height="5" fill="#0f172a"/>
  <rect x="210" y="325" width="41" height="4" fill="#64748b"/>
  <rect x="30" y="335" width="56" height="4" fill="#374151"/>
  
  <!-- Skills Section -->
  <rect x="30" y="355" width="35" height="6" fill="#0f172a"/>
  <line x1="30" y1="368" x2="65" y2="368" stroke="#d1d5db" stroke-width="1"/>
  
  <!-- Skills as inline text -->
  <rect x="30" y="380" width="20" height="3" fill="#1f2937"/>
  <rect x="53" y="380" width="2" height="3" fill="#64748b"/>
  <rect x="58" y="380" width="25" height="3" fill="#1f2937"/>
  <rect x="86" y="380" width="2" height="3" fill="#64748b"/>
  <rect x="91" y="380" width="18" height="3" fill="#1f2937"/>
  <rect x="112" y="380" width="2" height="3" fill="#64748b"/>
  <rect x="117" y="380" width="22" height="3" fill="#1f2937"/>
</svg>