<?xml version="1.0" encoding="UTF-8"?>
<svg id="Layer_1" data-name="Layer 1" xmlns="http://www.w3.org/2000/svg" viewBox="0 0 128 128">
  <defs>
    <style>
      .cls-1 {
        fill: #001887;
      }

      .cls-2 {
        fill: #3c91e6;
      }

      .cls-3 {
        fill: #192bc2;
      }
    </style>
  </defs>
  <path class="cls-3" d="M124.89,54.67c-6.53,9.35-13.96,6.53-13.96,6.53,0,0,21.66-8.64,8.61-28.81-.49-.76-.99-1.47-1.49-2.12-8.56-11.51-24.41-22.5-27.46-24.56-.14-.1-.28-.19-.42-.28-.06-.04-.1-.07-.1-.07h0c-4.9-3.16-9.78-3.21-13.97-2.04-4.5,1.26-7.57,5.41-7.57,10.08v38.47l10.37,35.35,7.06-35.35h12.73l-12.66,48.56h-14.32l-7.75-31.96-8.02,31.96h-14.32l-12.31-48.56h12.66l6.99,35.35,10.72-35.35V13.47c0-4.63-3.03-8.73-7.46-10.05-7.63-2.27-17.64-.55-25.94,16.8,0,0,15.29,2.52,15.59,18.41,0,0-18.32-29.56-33.41-6.24-13.05,20.16,8.61,28.81,8.61,28.81,0,0-7.42,2.82-13.96-6.53,0,0-14.56,37.95,25.09,32.07,0,0-4.01,6.53-17.82,4.16,0,0-1.18,22.38,25.84,20.34,0,0,2.26,13.99,13.99,14.14,11.73.15,10.95-9.68,10.95-9.68v-22.27s.32-2.23,2.83-2.08c2.51-.15,2.83,2.08,2.83,2.08v22.27s-.77,9.83,10.96,9.68c11.73-.15,14-14.14,14-14.14,27.02,2.04,25.84-20.34,25.84-20.34-13.81,2.38-17.82-4.16-17.82-4.16,39.65,5.88,25.09-32.07,25.09-32.07ZM112.6,43.91h-40.75v-.78h40.75v.78ZM112.6,41.81h-40.75v-.78h40.75v.78ZM71.85,34.85h21.6v2.75h-21.6v-2.75ZM71.85,38.93h40.75v.78h-40.75v-.78ZM71.85,46.01v-.78h40.75v.78h-40.75Z"/>
  <path class="cls-1" d="M90.07,5.37s20.57,13.51,29.47,27.03l-19.7,1.14c-7.58,0-10.34-3.98-10.34-10.05l.57-18.11Z"/>
  <path class="cls-2" d="M90.07,5.37s20.57,13.51,29.47,27.03h-19.7c-4.97,0-9.04-3.95-9.2-8.91l-.57-18.11Z"/>
</svg>
