<svg width="200" height="60" viewBox="0 0 200 60" xmlns="http://www.w3.org/2000/svg">
  <!-- Background circle -->
  <circle cx="30" cy="30" r="25" fill="#3B82F6" />
  
  <!-- Document icon inside circle -->
  <rect x="20" y="20" width="12" height="16" rx="1" fill="white"/>
  <rect x="32" y="20" width="8" height="16" rx="1" fill="white"/>
  
  <!-- Lines representing text on documents -->
  <rect x="22" y="24" width="8" height="1" fill="#3B82F6"/>
  <rect x="22" y="27" width="6" height="1" fill="#3B82F6"/>
  <rect x="22" y="30" width="7" height="1" fill="#3B82F6"/>
  
  <rect x="34" y="24" width="5" height="1" fill="#3B82F6"/>
  <rect x="34" y="27" width="4" height="1" fill="#3B82F6"/>
  <rect x="34" y="30" width="5" height="1" fill="#3B82F6"/>
  
  <!-- Kurdish sun symbol (subtle) -->
  <g transform="translate(30,30)" opacity="0.15">
    <circle r="3" fill="white"/>
    <g stroke="white" stroke-width="0.5">
      <line x1="0" y1="-8" x2="0" y2="-6"/>
      <line x1="5.66" y1="-5.66" x2="4.24" y2="-4.24"/>
      <line x1="8" y1="0" x2="6" y2="0"/>
      <line x1="5.66" y1="5.66" x2="4.24" y2="4.24"/>
      <line x1="0" y1="8" x2="0" y2="6"/>
      <line x1="-5.66" y1="5.66" x2="-4.24" y2="4.24"/>
      <line x1="-8" y1="0" x2="-6" y2="0"/>
      <line x1="-5.66" y1="-5.66" x2="-4.24" y2="-4.24"/>
    </g>
  </g>
  
  <!-- Text: Work -->
  <text x="70" y="40" font-family="Arial, sans-serif" font-size="28" font-weight="bold" fill="#1F2937">
    Work
  </text>
  
  <!-- Text: .krd -->
  <text x="140" y="40" font-family="Arial, sans-serif" font-size="28" font-weight="300" fill="#3B82F6">
    .krd
  </text>
  
  <!-- Tagline -->
  <text x="70" y="52" font-family="Arial, sans-serif" font-size="10" fill="#6B7280" opacity="0.8">
    AI-Powered Resume Builder
  </text>
</svg>