<svg width="60" height="60" viewBox="0 0 60 60" xmlns="http://www.w3.org/2000/svg">
  <!-- Background circle -->
  <circle cx="30" cy="30" r="28" fill="#3B82F6" />
  
  <!-- Document icon -->
  <rect x="18" y="18" width="14" height="20" rx="2" fill="white"/>
  <rect x="32" y="18" width="10" height="20" rx="2" fill="white"/>
  
  <!-- Lines representing text on documents -->
  <rect x="21" y="24" width="8" height="1.5" fill="#3B82F6"/>
  <rect x="21" y="28" width="6" height="1.5" fill="#3B82F6"/>
  <rect x="21" y="32" width="7" height="1.5" fill="#3B82F6"/>
  
  <rect x="35" y="24" width="5" height="1.5" fill="#3B82F6"/>
  <rect x="35" y="28" width="4" height="1.5" fill="#3B82F6"/>
  <rect x="35" y="32" width="5" height="1.5" fill="#3B82F6"/>
  
  <!-- Kurdish sun symbol (subtle) -->
  <g transform="translate(30,30)" opacity="0.2">
    <circle r="4" fill="white"/>
    <g stroke="white" stroke-width="1">
      <line x1="0" y1="-12" x2="0" y2="-8"/>
      <line x1="8.49" y1="-8.49" x2="5.66" y2="-5.66"/>
      <line x1="12" y1="0" x2="8" y2="0"/>
      <line x1="8.49" y1="8.49" x2="5.66" y2="5.66"/>
      <line x1="0" y1="12" x2="0" y2="8"/>
      <line x1="-8.49" y1="8.49" x2="-5.66" y2="5.66"/>
      <line x1="-12" y1="0" x2="-8" y2="0"/>
      <line x1="-8.49" y1="-8.49" x2="-5.66" y2="-5.66"/>
    </g>
  </g>
</svg>