<?xml version="1.0" encoding="UTF-8"?>
<svg id="Layer_1" data-name="Layer 1" xmlns="http://www.w3.org/2000/svg" viewBox="0 0 1941.77 1941.77">
  <defs>
    <style>
      .cls-1 {
        fill: #001887;
      }

      .cls-2 {
        fill: #f08700;
      }

      .cls-3 {
        fill: #3c91e6;
      }

      .cls-4 {
        fill: #192bc2;
      }
    </style>
  </defs>
  <g>
    <path class="cls-4" d="M1314.7,720.22c-36.89,52.82-78.81,36.89-78.81,36.89,0,0,122.3-48.8,48.62-162.65-2.78-4.32-5.59-8.29-8.41-11.97-48.36-64.98-137.84-127.04-155.08-138.69-.79-.54-1.57-1.07-2.36-1.58-.36-.24-.55-.37-.55-.37h0c-27.69-17.83-55.23-18.14-78.87-11.53-25.4,7.11-42.75,30.56-42.75,56.94v217.2l58.58,199.6,39.84-199.6h71.86l-71.48,274.19h-80.86l-43.75-180.45-45.31,180.45h-80.86l-69.52-274.19h71.48l39.44,199.6,60.54-199.6v-216.86c0-26.13-17.09-49.31-42.15-56.76-43.06-12.8-99.62-3.09-146.46,94.88,0,0,86.36,14.25,88.03,103.97,0,0-103.42-166.93-188.64-35.22-73.68,113.86,48.63,162.65,48.63,162.65,0,0-41.92,15.93-78.81-36.89,0,0-82.22,214.31,141.69,181.09,0,0-22.64,36.89-100.61,23.48,0,0-6.69,126.37,145.89,114.86,0,0,12.78,79,79.01,79.84,66.24.84,61.84-54.69,61.84-54.69l.05-125.76s1.75-12.58,15.94-11.74c14.19-.84,15.95,11.74,15.95,11.74l.05,125.76s-4.41,55.52,61.82,54.69c66.24-.84,79.03-79.84,79.03-79.84,152.58,11.51,145.89-114.86,145.89-114.86-77.98,13.41-100.61-23.48-100.61-23.48,223.91,33.22,141.69-181.09,141.69-181.09ZM1245.33,659.49h-230.1v-4.41h230.1v4.41ZM1245.33,647.62h-230.1v-4.41h230.1v4.41ZM1015.23,608.35h121.97v15.55h-121.97v-15.55ZM1015.23,631.35h230.1v4.41h-230.1v-4.41ZM1015.23,671.35v-4.41h230.1v4.41h-230.1Z"/>
    <path class="cls-1" d="M1118.11,441.85s116.17,76.3,166.41,152.61l-111.23,6.44c-42.79,0-58.39-22.47-58.39-56.77l3.21-102.28Z"/>
    <path class="cls-3" d="M1118.11,441.85s116.17,76.3,166.41,152.61h-111.23c-28.06,0-51.06-22.28-51.95-50.33l-3.23-102.28Z"/>
  </g>
  <g>
    <path class="cls-2" d="M494.66,1247.44l-68.98,264.6h-78.02l-42.22-174.14-43.72,174.14h-78.02l-67.09-264.6h68.98l38.07,192.61,47.12-192.61h70.86l45.23,192.61,38.45-192.61h69.35Z"/>
    <path class="cls-2" d="M567.21,1501.86c-16.46-8.79-29.4-21.35-38.82-37.69-9.42-16.33-14.14-35.43-14.14-57.29s4.77-40.64,14.32-57.1c9.55-16.45,22.62-29.08,39.2-37.88,16.59-8.79,35.18-13.19,55.79-13.19s39.2,4.4,55.79,13.19c16.58,8.8,29.65,21.43,39.2,37.88,9.55,16.46,14.32,35.5,14.32,57.1s-4.84,40.65-14.51,57.1c-9.68,16.46-22.87,29.09-39.58,37.88-16.71,8.8-35.37,13.19-55.97,13.19s-39.14-4.39-55.6-13.19ZM654.28,1445.7c8.67-9.05,13-21.99,13-38.82s-4.21-29.78-12.63-38.82c-8.42-9.05-18.79-13.57-31.1-13.57s-22.99,4.46-31.29,13.38c-8.29,8.92-12.44,21.93-12.44,39.01s4.08,29.78,12.25,38.82c8.16,9.05,18.4,13.57,30.72,13.57s22.8-4.52,31.47-13.57Z"/>
    <path class="cls-2" d="M859.89,1309.44c11.31-6.66,23.87-9.99,37.69-9.99v68.22h-17.72c-16.08,0-28.15,3.46-36.18,10.37-8.05,6.91-12.06,19.03-12.06,36.37v97.62h-64.45v-210.32h64.45v35.05c7.54-11.56,16.96-20.67,28.27-27.33Z"/>
    <path class="cls-2" d="M1057.02,1512.04l-64.08-88.2v88.2h-64.45v-278.92h64.45v154.16l63.7-85.56h79.53l-87.45,105.54,88.2,104.78h-79.91Z"/>
    <path d="M1163.87,1505.06c-7.16-6.66-10.74-14.89-10.74-24.69s3.58-18.47,10.74-25.25c7.16-6.79,16.4-10.18,27.7-10.18s20.17,3.39,27.33,10.18,10.74,15.21,10.74,25.25-3.58,18.03-10.74,24.69c-7.16,6.66-16.27,9.99-27.33,9.99s-20.54-3.33-27.7-9.99Z"/>
    <path d="M1354.78,1408.38l95.74,103.65h-58.05l-76.89-89.33v89.33h-42.97v-278.92h42.97v162.08l75.38-90.84h59.55l-95.74,104.03Z"/>
    <path d="M1549.46,1309.82c10.42-5.9,22.8-8.86,37.13-8.86v44.48h-10.93c-16.84,0-29.59,4.28-38.26,12.82-8.67,8.55-13,23.37-13,44.48v109.31h-42.97v-207.68h42.97v30.15c6.28-10.55,14.63-18.78,25.07-24.69Z"/>
    <path d="M1624.84,1351.84c8.67-16.08,20.48-28.58,35.43-37.5,14.95-8.92,31.6-13.38,49.94-13.38,13.57,0,26.95,2.96,40.14,8.86,13.19,5.91,23.68,13.76,31.47,23.56v-100.26h43.35v278.92h-43.35v-31.29c-7.04,10.05-16.77,18.35-29.21,24.88-12.44,6.53-26.7,9.8-42.78,9.8-18.09,0-34.62-4.58-49.57-13.76-14.95-9.17-26.76-21.99-35.43-38.45-8.67-16.46-13-35.11-13-55.97s4.34-39.32,13-55.41ZM1772.97,1370.69c-5.91-10.55-13.63-18.59-23.18-24.12-9.55-5.52-19.85-8.29-30.91-8.29s-21.36,2.7-30.91,8.1c-9.55,5.41-17.28,13.32-23.18,23.75-5.91,10.43-8.86,22.8-8.86,37.13s2.95,26.89,8.86,37.69c5.9,10.81,13.69,19.03,23.37,24.69,9.67,5.65,19.91,8.48,30.72,8.48s21.35-2.76,30.91-8.29c9.55-5.52,17.27-13.63,23.18-24.31,5.9-10.68,8.86-23.18,8.86-37.5s-2.96-26.76-8.86-37.32Z"/>
  </g>
</svg>